<?xml version="1.0" encoding="utf-8"?>
<!-- Generator: Adobe Illustrator 15.0.0, SVG Export Plug-In . SVG Version: 6.00 Build 0)  -->
<!DOCTYPE svg PUBLIC "-//W3C//DTD SVG 1.0//EN" "http://www.w3.org/TR/2001/REC-SVG-20010904/DTD/svg10.dtd">
<svg version="1.0" id="Ebene_1" xmlns="http://www.w3.org/2000/svg" xmlns:xlink="http://www.w3.org/1999/xlink" x="0px" y="0px"
	 width="34px" height="34px" viewBox="0 0 34 34" enable-background="new 0 0 34 34" xml:space="preserve">
<g>
	<path fill="#1E1E1C" d="M17,34c9.389,0,17-7.611,17-17c0-9.389-7.611-17-17-17C7.611,0,0,7.611,0,17C0,26.389,7.611,34,17,34"/>
</g>
<rect x="9.257" y="9.257" fill="#FFFFFF" width="6.38" height="6.38"/>
<g>
	<path fill="#FFFFFF" d="M12.447,24.743c1.762,0,3.19-1.428,3.19-3.19c0-1.762-1.428-3.189-3.19-3.189
		c-1.762,0-3.19,1.428-3.19,3.189C9.257,23.315,10.685,24.743,12.447,24.743"/>
	<path fill="#FFFFFF" d="M21.554,15.637c1.762,0,3.189-1.428,3.189-3.19c0-1.762-1.428-3.19-3.189-3.19
		c-1.763,0-3.19,1.428-3.19,3.19C18.363,14.208,19.791,15.637,21.554,15.637"/>
</g>
<rect x="18.363" y="18.363" fill="#FFFFFF" width="6.38" height="6.38"/>
</svg>
