<?xml version="1.0" encoding="utf-8"?>
<!-- Generator: Adobe Illustrator 15.0.0, SVG Export Plug-In . SVG Version: 6.00 Build 0)  -->
<!DOCTYPE svg PUBLIC "-//W3C//DTD SVG 1.0//EN" "http://www.w3.org/TR/2001/REC-SVG-20010904/DTD/svg10.dtd">
<svg version="1.0" id="Ebene_1" xmlns="http://www.w3.org/2000/svg" xmlns:xlink="http://www.w3.org/1999/xlink" x="0px" y="0px"
	 width="34px" height="34px" viewBox="0 0 34 34" enable-background="new 0 0 34 34" xml:space="preserve">
<g>
	<path fill="#1E1E1C" d="M17,34c9.389,0,17-7.611,17-17c0-9.389-7.611-17-17-17C7.611,0,0,7.611,0,17C0,26.389,7.611,34,17,34"/>
	<path fill="#FFFFFF" d="M17.073,25.002c7.842,0,13.936-8,13.936-8S24.915,9,17.073,9C9.231,9,3.006,17.002,3.006,17.002
		S9.231,25.002,17.073,25.002"/>
	<path fill="#1E1E1C" d="M17.002,23.094c3.365,0,6.094-2.729,6.094-6.094c0-3.366-2.729-6.094-6.094-6.094
		c-3.366,0-6.094,2.728-6.094,6.094C10.908,20.365,13.636,23.094,17.002,23.094"/>
</g>
</svg>
