<?xml version="1.0" encoding="utf-8"?>
<!-- Generator: Adobe Illustrator 15.0.0, SVG Export Plug-In . SVG Version: 6.00 Build 0)  -->
<!DOCTYPE svg PUBLIC "-//W3C//DTD SVG 1.0//EN" "http://www.w3.org/TR/2001/REC-SVG-20010904/DTD/svg10.dtd">
<svg version="1.0" id="Ebene_1" xmlns="http://www.w3.org/2000/svg" xmlns:xlink="http://www.w3.org/1999/xlink" x="0px" y="0px"
	 width="34px" height="34px" viewBox="0 0 34 34" enable-background="new 0 0 34 34" xml:space="preserve">
<g>
	<path fill="#1E1E1C" d="M17,34c9.389,0,17-7.611,17-17c0-9.389-7.611-17-17-17C7.611,0,0,7.611,0,17C0,26.389,7.611,34,17,34"/>
</g>
<g>
	<defs>
		<circle id="SVGID_1_" cx="17" cy="17" r="17"/>
	</defs>
	<clipPath id="SVGID_2_">
		<use xlink:href="#SVGID_1_"  overflow="visible"/>
	</clipPath>
	<ellipse clip-path="url(#SVGID_2_)" fill="none" stroke="#FFFFFF" stroke-width="2" cx="16.983" cy="17" rx="7.234" ry="18.391"/>
	<path clip-path="url(#SVGID_2_)" fill="none" stroke="#FFFFFF" stroke-width="2" d="M33.491,8.485
		c-3.737,2.863-9.743,4.72-16.516,4.72c-6.634,0-12.532-1.781-16.283-4.544"/>
	<path clip-path="url(#SVGID_2_)" fill="none" stroke="#FFFFFF" stroke-width="2" d="M33.491,26.469
		c-3.737-2.863-9.743-4.721-16.516-4.721c-6.634,0-12.532,1.781-16.283,4.544"/>
</g>
</svg>
