<?xml version="1.0" encoding="utf-8"?>
<!-- Generator: Adobe Illustrator 15.0.0, SVG Export Plug-In . SVG Version: 6.00 Build 0)  -->
<!DOCTYPE svg PUBLIC "-//W3C//DTD SVG 1.0//EN" "http://www.w3.org/TR/2001/REC-SVG-20010904/DTD/svg10.dtd">
<svg version="1.0" id="Ebene_1" xmlns="http://www.w3.org/2000/svg" xmlns:xlink="http://www.w3.org/1999/xlink" x="0px" y="0px"
	 width="31px" height="31px" viewBox="0 0 31 31" enable-background="new 0 0 31 31" xml:space="preserve">
<g>
	<path fill="#1E1E1C" d="M3,15.539H0C0,6.971,6.848,0,15.264,0c6.399,0,12.166,4.112,14.35,10.231l-2.826,1.009
		C25.029,6.312,20.398,3,15.264,3C8.502,3,3,8.625,3,15.539z"/>
	<rect x="21.518" y="9.303" fill="#1E1E1C" width="8.908" height="3"/>
	<rect x="28" y="2.651" fill="#1E1E1C" width="3" height="9.652"/>
	<path fill="#1E1E1C" d="M15.736,31C9.337,31,3.57,26.888,1.386,20.768l2.825-1.008C5.97,24.688,10.602,28,15.736,28
		C22.498,28,28,22.375,28,15.461h3C31,24.029,24.152,31,15.736,31z"/>
	<rect x="0.574" y="18.697" fill="#1E1E1C" width="8.909" height="3"/>
	<rect y="18.697" fill="#1E1E1C" width="3" height="9.651"/>
</g>
</svg>
