<?xml version="1.0" encoding="UTF-8" standalone="no"?>
<svg width="42px" height="42px" viewBox="0 0 42 42" version="1.1" xmlns="http://www.w3.org/2000/svg" xmlns:xlink="http://www.w3.org/1999/xlink" xmlns:sketch="http://www.bohemiancoding.com/sketch/ns">
    <!-- Generator: Sketch 3.0.4 (8054) - http://www.bohemiancoding.com/sketch -->
    <title>play_weiss</title>
    <desc>Created with Sketch.</desc>
    <defs></defs>
    <g id="Page-1" stroke="none" stroke-width="1" fill="none" fill-rule="evenodd" sketch:type="MSPage">
        <g id="play_weiss" sketch:type="MSLayerGroup" fill="#FFFFFF">
            <path d="M21,42 C9.42,42 0,32.579 0,21 C0,9.42 9.42,0 21,0 C32.58,0 42,9.42 42,21 C42,32.579 32.579,42 21,42 L21,42 L21,42 Z M21,2 C10.523,2 2,10.523 2,21 C2,31.477 10.523,40 21,40 C31.477,40 40,31.477 40,21 C40,10.523 31.477,2 21,2 L21,2 L21,2 Z" id="Shape" sketch:type="MSShapeGroup"></path>
            <rect id="Rectangle-1" sketch:type="MSShapeGroup" x="13" y="10" width="6" height="21"></rect>
            <rect id="Rectangle-2" sketch:type="MSShapeGroup" x="23" y="10" width="6" height="21"></rect>
        </g>
    </g>
</svg>