<?xml version="1.0" encoding="utf-8"?>
<!-- Generator: Adobe Illustrator 14.0.0, SVG Export Plug-In . SVG Version: 6.00 Build 43363)  -->
<!DOCTYPE svg PUBLIC "-//W3C//DTD SVG 1.0//EN" "http://www.w3.org/TR/2001/REC-SVG-20010904/DTD/svg10.dtd">
<svg version="1.0" id="Ebene_1" xmlns="http://www.w3.org/2000/svg" xmlns:xlink="http://www.w3.org/1999/xlink" x="0px" y="0px"
	 width="42px" height="42px" viewBox="0 0 42 42" enable-background="new 0 0 42 42" xml:space="preserve">
<g>
	<path fill="#FFFFFF" d="M21,42C9.42,42,0,32.579,0,21C0,9.42,9.42,0,21,0s21,9.42,21,21C42,32.579,32.579,42,21,42L21,42z M21,2
		C10.523,2,2,10.523,2,21s8.523,19,19,19c10.477,0,19-8.523,19-19S31.477,2,21,2L21,2z"/>
</g>
<polygon fill="#FFFFFF" points="33.689,22 15.697,11.612 15.697,32.388 "/>
</svg>
